<?xml version="1.0" encoding="UTF-8" standalone="no"?><svg xmlns="http://www.w3.org/2000/svg" xmlns:xlink="http://www.w3.org/1999/xlink" contentScriptType="application/ecmascript" contentStyleType="text/css" height="427px" preserveAspectRatio="none" style="width:1087px;height:427px;" version="1.1" viewBox="0 0 1087 427" width="1087px" zoomAndPan="magnify"><defs><filter height="300%" id="f1h75stn8pmdnj" width="300%" x="-1" y="-1"><feGaussianBlur result="blurOut" stdDeviation="2.0"/><feColorMatrix in="blurOut" result="blurOut2" type="matrix" values="0 0 0 0 0 0 0 0 0 0 0 0 0 0 0 0 0 0 .4 0"/><feOffset dx="4.0" dy="4.0" in="blurOut2" result="blurOut3"/><feBlend in="SourceGraphic" in2="blurOut3" mode="normal"/></filter></defs><g><!--cluster models--><polygon fill="#FFFFFF" filter="url(#f1h75stn8pmdnj)" points="547,16,606,16,613,38.4883,1065,38.4883,1065,408.5,547,408.5,547,16" style="stroke: #000000; stroke-width: 2.0;"/><line style="stroke: #000000; stroke-width: 2.0;" x1="547" x2="613" y1="38.4883" y2="38.4883"/><text fill="#000000" font-family="sans-serif" font-size="14" font-weight="bold" lengthAdjust="spacingAndGlyphs" textLength="53" x="551" y="31.5352">models</text><!--cluster controllers--><polygon fill="#FFFFFF" filter="url(#f1h75stn8pmdnj)" points="14,16,98,16,105,38.4883,532,38.4883,532,415,14,415,14,16" style="stroke: #000000; stroke-width: 2.0;"/><line style="stroke: #000000; stroke-width: 2.0;" x1="14" x2="105" y1="38.4883" y2="38.4883"/><text fill="#000000" font-family="sans-serif" font-size="14" font-weight="bold" lengthAdjust="spacingAndGlyphs" textLength="78" x="18" y="31.5352">controllers</text><!--class User--><rect fill="#FEFECE" filter="url(#f1h75stn8pmdnj)" height="112.7754" id="User" style="stroke: #A80036; stroke-width: 1.5;" width="141" x="559.5" y="274.5"/><ellipse cx="612.75" cy="290.5" fill="#ADD1B2" rx="11" ry="11" style="stroke: #A80036; stroke-width: 1.0;"/><path d="M615.7231,296.1431 Q615.1421,296.4419 614.5029,296.5913 Q613.8638,296.7407 613.1582,296.7407 Q610.6514,296.7407 609.3315,295.0889 Q608.0117,293.437 608.0117,290.3159 Q608.0117,287.1865 609.3315,285.5347 Q610.6514,283.8828 613.1582,283.8828 Q613.8638,283.8828 614.5112,284.0322 Q615.1587,284.1816 615.7231,284.4805 L615.7231,287.2031 Q615.0923,286.6221 614.4988,286.3523 Q613.9053,286.0825 613.2744,286.0825 Q611.9297,286.0825 611.2449,287.1492 Q610.5601,288.2158 610.5601,290.3159 Q610.5601,292.4077 611.2449,293.4744 Q611.9297,294.541 613.2744,294.541 Q613.9053,294.541 614.4988,294.2712 Q615.0923,294.0015 615.7231,293.4204 Z "/><text fill="#000000" font-family="sans-serif" font-size="12" lengthAdjust="spacingAndGlyphs" textLength="26" x="633.25" y="295.0352">User</text><line style="stroke: #A80036; stroke-width: 1.5;" x1="560.5" x2="699.5" y1="306.5" y2="306.5"/><ellipse cx="570.5" cy="318.4775" fill="none" rx="3" ry="3" style="stroke: #038048; stroke-width: 1.0;"/><text fill="#000000" font-family="sans-serif" font-size="11" lengthAdjust="spacingAndGlyphs" textLength="33" x="579.5" y="321.1348">id : int</text><ellipse cx="570.5" cy="331.4326" fill="none" rx="3" ry="3" style="stroke: #038048; stroke-width: 1.0;"/><text fill="#000000" font-family="sans-serif" font-size="11" lengthAdjust="spacingAndGlyphs" textLength="70" x="579.5" y="334.0898">name : string</text><ellipse cx="570.5" cy="344.3877" fill="none" rx="3" ry="3" style="stroke: #038048; stroke-width: 1.0;"/><text fill="#000000" font-family="sans-serif" font-size="11" lengthAdjust="spacingAndGlyphs" textLength="71" x="579.5" y="347.0449">token : string</text><ellipse cx="570.5" cy="357.3428" fill="none" rx="3" ry="3" style="stroke: #038048; stroke-width: 1.0;"/><text fill="#000000" font-family="sans-serif" font-size="11" lengthAdjust="spacingAndGlyphs" textLength="111" x="579.5" y="360">created_at : datetime</text><ellipse cx="570.5" cy="370.2979" fill="none" rx="3" ry="3" style="stroke: #038048; stroke-width: 1.0;"/><text fill="#000000" font-family="sans-serif" font-size="11" lengthAdjust="spacingAndGlyphs" textLength="115" x="579.5" y="372.9551">updated_at : datetime</text><line style="stroke: #A80036; stroke-width: 1.5;" x1="560.5" x2="699.5" y1="379.2754" y2="379.2754"/><!--class Building--><rect fill="#FEFECE" filter="url(#f1h75stn8pmdnj)" height="112.7754" id="Building" style="stroke: #A80036; stroke-width: 1.5;" width="141" x="915.5" y="62.5"/><ellipse cx="959.3" cy="78.5" fill="#ADD1B2" rx="11" ry="11" style="stroke: #A80036; stroke-width: 1.0;"/><path d="M962.2731,84.1431 Q961.6921,84.4419 961.0529,84.5913 Q960.4138,84.7407 959.7082,84.7407 Q957.2014,84.7407 955.8815,83.0889 Q954.5617,81.437 954.5617,78.3159 Q954.5617,75.1865 955.8815,73.5347 Q957.2014,71.8828 959.7082,71.8828 Q960.4138,71.8828 961.0612,72.0322 Q961.7087,72.1816 962.2731,72.4805 L962.2731,75.2031 Q961.6423,74.6221 961.0488,74.3523 Q960.4553,74.0825 959.8244,74.0825 Q958.4797,74.0825 957.7949,75.1492 Q957.1101,76.2158 957.1101,78.3159 Q957.1101,80.4077 957.7949,81.4744 Q958.4797,82.541 959.8244,82.541 Q960.4553,82.541 961.0488,82.2712 Q961.6423,82.0015 962.2731,81.4204 Z "/><text fill="#000000" font-family="sans-serif" font-size="12" lengthAdjust="spacingAndGlyphs" textLength="45" x="979.7" y="83.0352">Building</text><line style="stroke: #A80036; stroke-width: 1.5;" x1="916.5" x2="1055.5" y1="94.5" y2="94.5"/><ellipse cx="926.5" cy="106.4775" fill="none" rx="3" ry="3" style="stroke: #038048; stroke-width: 1.0;"/><text fill="#000000" font-family="sans-serif" font-size="11" lengthAdjust="spacingAndGlyphs" textLength="33" x="935.5" y="109.1348">id : int</text><ellipse cx="926.5" cy="119.4326" fill="none" rx="3" ry="3" style="stroke: #038048; stroke-width: 1.0;"/><text fill="#000000" font-family="sans-serif" font-size="11" lengthAdjust="spacingAndGlyphs" textLength="70" x="935.5" y="122.0898">name : string</text><ellipse cx="926.5" cy="132.3877" fill="none" rx="3" ry="3" style="stroke: #038048; stroke-width: 1.0;"/><text fill="#000000" font-family="sans-serif" font-size="11" lengthAdjust="spacingAndGlyphs" textLength="76" x="935.5" y="135.0449">initials : string</text><ellipse cx="926.5" cy="145.3428" fill="none" rx="3" ry="3" style="stroke: #038048; stroke-width: 1.0;"/><text fill="#000000" font-family="sans-serif" font-size="11" lengthAdjust="spacingAndGlyphs" textLength="111" x="935.5" y="148">created_at : datetime</text><ellipse cx="926.5" cy="158.2979" fill="none" rx="3" ry="3" style="stroke: #038048; stroke-width: 1.0;"/><text fill="#000000" font-family="sans-serif" font-size="11" lengthAdjust="spacingAndGlyphs" textLength="115" x="935.5" y="160.9551">updated_at : datetime</text><line style="stroke: #A80036; stroke-width: 1.5;" x1="916.5" x2="1055.5" y1="167.2754" y2="167.2754"/><!--class Company--><rect fill="#FEFECE" filter="url(#f1h75stn8pmdnj)" height="138.6855" id="Company" style="stroke: #A80036; stroke-width: 1.5;" width="141" x="739.5" y="261.5"/><ellipse cx="779.25" cy="277.5" fill="#ADD1B2" rx="11" ry="11" style="stroke: #A80036; stroke-width: 1.0;"/><path d="M782.2231,283.1431 Q781.6421,283.4419 781.0029,283.5913 Q780.3638,283.7407 779.6582,283.7407 Q777.1514,283.7407 775.8315,282.0889 Q774.5117,280.437 774.5117,277.3159 Q774.5117,274.1865 775.8315,272.5347 Q777.1514,270.8828 779.6582,270.8828 Q780.3638,270.8828 781.0112,271.0322 Q781.6587,271.1816 782.2231,271.4805 L782.2231,274.2031 Q781.5923,273.6221 780.9988,273.3523 Q780.4053,273.0825 779.7744,273.0825 Q778.4297,273.0825 777.7449,274.1492 Q777.0601,275.2158 777.0601,277.3159 Q777.0601,279.4077 777.7449,280.4744 Q778.4297,281.541 779.7744,281.541 Q780.4053,281.541 780.9988,281.2712 Q781.5923,281.0015 782.2231,280.4204 Z "/><text fill="#000000" font-family="sans-serif" font-size="12" lengthAdjust="spacingAndGlyphs" textLength="54" x="798.75" y="282.0352">Company</text><line style="stroke: #A80036; stroke-width: 1.5;" x1="740.5" x2="879.5" y1="293.5" y2="293.5"/><ellipse cx="750.5" cy="305.4775" fill="none" rx="3" ry="3" style="stroke: #038048; stroke-width: 1.0;"/><text fill="#000000" font-family="sans-serif" font-size="11" lengthAdjust="spacingAndGlyphs" textLength="33" x="759.5" y="308.1348">id : int</text><ellipse cx="750.5" cy="318.4326" fill="none" rx="3" ry="3" style="stroke: #038048; stroke-width: 1.0;"/><text fill="#000000" font-family="sans-serif" font-size="11" lengthAdjust="spacingAndGlyphs" textLength="70" x="759.5" y="321.0898">name : string</text><ellipse cx="750.5" cy="331.3877" fill="none" rx="3" ry="3" style="stroke: #038048; stroke-width: 1.0;"/><text fill="#000000" font-family="sans-serif" font-size="11" lengthAdjust="spacingAndGlyphs" textLength="59" x="759.5" y="334.0449">tier : string</text><ellipse cx="750.5" cy="344.3428" fill="none" rx="3" ry="3" style="stroke: #038048; stroke-width: 1.0;"/><text fill="#000000" font-family="sans-serif" font-size="11" lengthAdjust="spacingAndGlyphs" textLength="102" x="759.5" y="347">website_url : string</text><ellipse cx="750.5" cy="357.2979" fill="none" rx="3" ry="3" style="stroke: #038048; stroke-width: 1.0;"/><text fill="#000000" font-family="sans-serif" font-size="11" lengthAdjust="spacingAndGlyphs" textLength="65" x="759.5" y="359.9551">logo : string</text><ellipse cx="750.5" cy="370.2529" fill="none" rx="3" ry="3" style="stroke: #038048; stroke-width: 1.0;"/><text fill="#000000" font-family="sans-serif" font-size="11" lengthAdjust="spacingAndGlyphs" textLength="111" x="759.5" y="372.9102">created_at : datetime</text><ellipse cx="750.5" cy="383.208" fill="none" rx="3" ry="3" style="stroke: #038048; stroke-width: 1.0;"/><text fill="#000000" font-family="sans-serif" font-size="11" lengthAdjust="spacingAndGlyphs" textLength="115" x="759.5" y="385.8652">updated_at : datetime</text><line style="stroke: #A80036; stroke-width: 1.5;" x1="740.5" x2="879.5" y1="392.1855" y2="392.1855"/><!--class Room--><rect fill="#FEFECE" filter="url(#f1h75stn8pmdnj)" height="112.7754" id="Room" style="stroke: #A80036; stroke-width: 1.5;" width="141" x="915.5" y="274.5"/><ellipse cx="965.25" cy="290.5" fill="#ADD1B2" rx="11" ry="11" style="stroke: #A80036; stroke-width: 1.0;"/><path d="M968.2231,296.1431 Q967.6421,296.4419 967.0029,296.5913 Q966.3638,296.7407 965.6582,296.7407 Q963.1514,296.7407 961.8315,295.0889 Q960.5117,293.437 960.5117,290.3159 Q960.5117,287.1865 961.8315,285.5347 Q963.1514,283.8828 965.6582,283.8828 Q966.3638,283.8828 967.0112,284.0322 Q967.6587,284.1816 968.2231,284.4805 L968.2231,287.2031 Q967.5923,286.6221 966.9988,286.3523 Q966.4053,286.0825 965.7744,286.0825 Q964.4297,286.0825 963.7449,287.1492 Q963.0601,288.2158 963.0601,290.3159 Q963.0601,292.4077 963.7449,293.4744 Q964.4297,294.541 965.7744,294.541 Q966.4053,294.541 966.9988,294.2712 Q967.5923,294.0015 968.2231,293.4204 Z "/><text fill="#000000" font-family="sans-serif" font-size="12" lengthAdjust="spacingAndGlyphs" textLength="33" x="985.75" y="295.0352">Room</text><line style="stroke: #A80036; stroke-width: 1.5;" x1="916.5" x2="1055.5" y1="306.5" y2="306.5"/><ellipse cx="926.5" cy="318.4775" fill="none" rx="3" ry="3" style="stroke: #038048; stroke-width: 1.0;"/><text fill="#000000" font-family="sans-serif" font-size="11" lengthAdjust="spacingAndGlyphs" textLength="33" x="935.5" y="321.1348">id : int</text><ellipse cx="926.5" cy="331.4326" fill="none" rx="3" ry="3" style="stroke: #038048; stroke-width: 1.0;"/><text fill="#000000" font-family="sans-serif" font-size="11" lengthAdjust="spacingAndGlyphs" textLength="99" x="935.5" y="334.0898">room_type : string</text><ellipse cx="926.5" cy="344.3877" fill="none" rx="3" ry="3" style="stroke: #038048; stroke-width: 1.0;"/><text fill="#000000" font-family="sans-serif" font-size="11" lengthAdjust="spacingAndGlyphs" textLength="70" x="935.5" y="347.0449">name : string</text><ellipse cx="926.5" cy="357.3428" fill="none" rx="3" ry="3" style="stroke: #038048; stroke-width: 1.0;"/><text fill="#000000" font-family="sans-serif" font-size="11" lengthAdjust="spacingAndGlyphs" textLength="111" x="935.5" y="360">created_at : datetime</text><ellipse cx="926.5" cy="370.2979" fill="none" rx="3" ry="3" style="stroke: #038048; stroke-width: 1.0;"/><text fill="#000000" font-family="sans-serif" font-size="11" lengthAdjust="spacingAndGlyphs" textLength="115" x="935.5" y="372.9551">updated_at : datetime</text><line style="stroke: #A80036; stroke-width: 1.5;" x1="916.5" x2="1055.5" y1="379.2754" y2="379.2754"/><!--class Event--><rect fill="#FEFECE" filter="url(#f1h75stn8pmdnj)" height="151.6406" id="Event" style="stroke: #A80036; stroke-width: 1.5;" width="141" x="739.5" y="43"/><ellipse cx="790.25" cy="59" fill="#ADD1B2" rx="11" ry="11" style="stroke: #A80036; stroke-width: 1.0;"/><path d="M793.2231,64.6431 Q792.6421,64.9419 792.0029,65.0913 Q791.3638,65.2407 790.6582,65.2407 Q788.1514,65.2407 786.8315,63.5889 Q785.5117,61.937 785.5117,58.8159 Q785.5117,55.6865 786.8315,54.0347 Q788.1514,52.3828 790.6582,52.3828 Q791.3638,52.3828 792.0112,52.5322 Q792.6587,52.6816 793.2231,52.9805 L793.2231,55.7031 Q792.5923,55.1221 791.9988,54.8523 Q791.4053,54.5825 790.7744,54.5825 Q789.4297,54.5825 788.7449,55.6492 Q788.0601,56.7158 788.0601,58.8159 Q788.0601,60.9077 788.7449,61.9744 Q789.4297,63.041 790.7744,63.041 Q791.4053,63.041 791.9988,62.7712 Q792.5923,62.5015 793.2231,61.9204 Z "/><text fill="#000000" font-family="sans-serif" font-size="12" lengthAdjust="spacingAndGlyphs" textLength="31" x="810.75" y="63.5352">Event</text><line style="stroke: #A80036; stroke-width: 1.5;" x1="740.5" x2="879.5" y1="75" y2="75"/><ellipse cx="750.5" cy="86.9775" fill="none" rx="3" ry="3" style="stroke: #038048; stroke-width: 1.0;"/><text fill="#000000" font-family="sans-serif" font-size="11" lengthAdjust="spacingAndGlyphs" textLength="33" x="759.5" y="89.6348">id : int</text><ellipse cx="750.5" cy="99.9326" fill="none" rx="3" ry="3" style="stroke: #038048; stroke-width: 1.0;"/><text fill="#000000" font-family="sans-serif" font-size="11" lengthAdjust="spacingAndGlyphs" textLength="70" x="759.5" y="102.5898">name : string</text><ellipse cx="750.5" cy="112.8877" fill="none" rx="3" ry="3" style="stroke: #038048; stroke-width: 1.0;"/><text fill="#000000" font-family="sans-serif" font-size="11" lengthAdjust="spacingAndGlyphs" textLength="109" x="759.5" y="115.5449">start_time : datetime</text><ellipse cx="750.5" cy="125.8428" fill="none" rx="3" ry="3" style="stroke: #038048; stroke-width: 1.0;"/><text fill="#000000" font-family="sans-serif" font-size="11" lengthAdjust="spacingAndGlyphs" textLength="104" x="759.5" y="128.5">end_time : datetime</text><ellipse cx="750.5" cy="138.7979" fill="none" rx="3" ry="3" style="stroke: #038048; stroke-width: 1.0;"/><text fill="#000000" font-family="sans-serif" font-size="11" lengthAdjust="spacingAndGlyphs" textLength="99" x="759.5" y="141.4551">event_type : string</text><ellipse cx="750.5" cy="151.7529" fill="none" rx="3" ry="3" style="stroke: #038048; stroke-width: 1.0;"/><text fill="#000000" font-family="sans-serif" font-size="11" lengthAdjust="spacingAndGlyphs" textLength="102" x="759.5" y="154.4102">description : string</text><ellipse cx="750.5" cy="164.708" fill="none" rx="3" ry="3" style="stroke: #038048; stroke-width: 1.0;"/><text fill="#000000" font-family="sans-serif" font-size="11" lengthAdjust="spacingAndGlyphs" textLength="111" x="759.5" y="167.3652">created_at : datetime</text><ellipse cx="750.5" cy="177.6631" fill="none" rx="3" ry="3" style="stroke: #038048; stroke-width: 1.0;"/><text fill="#000000" font-family="sans-serif" font-size="11" lengthAdjust="spacingAndGlyphs" textLength="115" x="759.5" y="180.3203">updated_at : datetime</text><line style="stroke: #A80036; stroke-width: 1.5;" x1="740.5" x2="879.5" y1="186.6406" y2="186.6406"/><!--class HelpRequest--><rect fill="#FEFECE" filter="url(#f1h75stn8pmdnj)" height="151.6406" id="HelpRequest" style="stroke: #A80036; stroke-width: 1.5;" width="149" x="555.5" y="43"/><ellipse cx="589.85" cy="59" fill="#ADD1B2" rx="11" ry="11" style="stroke: #A80036; stroke-width: 1.0;"/><path d="M592.8231,64.6431 Q592.2421,64.9419 591.6029,65.0913 Q590.9638,65.2407 590.2582,65.2407 Q587.7514,65.2407 586.4315,63.5889 Q585.1117,61.937 585.1117,58.8159 Q585.1117,55.6865 586.4315,54.0347 Q587.7514,52.3828 590.2582,52.3828 Q590.9638,52.3828 591.6112,52.5322 Q592.2587,52.6816 592.8231,52.9805 L592.8231,55.7031 Q592.1923,55.1221 591.5988,54.8523 Q591.0053,54.5825 590.3744,54.5825 Q589.0297,54.5825 588.3449,55.6492 Q587.6601,56.7158 587.6601,58.8159 Q587.6601,60.9077 588.3449,61.9744 Q589.0297,63.041 590.3744,63.041 Q591.0053,63.041 591.5988,62.7712 Q592.1923,62.5015 592.8231,61.9204 Z "/><text fill="#000000" font-family="sans-serif" font-size="12" lengthAdjust="spacingAndGlyphs" textLength="74" x="608.15" y="63.5352">HelpRequest</text><line style="stroke: #A80036; stroke-width: 1.5;" x1="556.5" x2="703.5" y1="75" y2="75"/><ellipse cx="566.5" cy="86.9775" fill="none" rx="3" ry="3" style="stroke: #038048; stroke-width: 1.0;"/><text fill="#000000" font-family="sans-serif" font-size="11" lengthAdjust="spacingAndGlyphs" textLength="33" x="575.5" y="89.6348">id : int</text><ellipse cx="566.5" cy="99.9326" fill="none" rx="3" ry="3" style="stroke: #038048; stroke-width: 1.0;"/><text fill="#000000" font-family="sans-serif" font-size="11" lengthAdjust="spacingAndGlyphs" textLength="123" x="575.5" y="102.5898">profile_pic_link : string</text><ellipse cx="566.5" cy="112.8877" fill="none" rx="3" ry="3" style="stroke: #038048; stroke-width: 1.0;"/><text fill="#000000" font-family="sans-serif" font-size="11" lengthAdjust="spacingAndGlyphs" textLength="84" x="575.5" y="115.5449">location : string</text><ellipse cx="566.5" cy="125.8428" fill="none" rx="3" ry="3" style="stroke: #038048; stroke-width: 1.0;"/><text fill="#000000" font-family="sans-serif" font-size="11" lengthAdjust="spacingAndGlyphs" textLength="86" x="575.5" y="128.5">problem : string</text><ellipse cx="566.5" cy="138.7979" fill="none" rx="3" ry="3" style="stroke: #038048; stroke-width: 1.0;"/><text fill="#000000" font-family="sans-serif" font-size="11" lengthAdjust="spacingAndGlyphs" textLength="94" x="575.5" y="141.4551">mentors : string[]</text><ellipse cx="566.5" cy="151.7529" fill="none" rx="3" ry="3" style="stroke: #038048; stroke-width: 1.0;"/><text fill="#000000" font-family="sans-serif" font-size="11" lengthAdjust="spacingAndGlyphs" textLength="74" x="575.5" y="154.4102">status : string</text><ellipse cx="566.5" cy="164.708" fill="none" rx="3" ry="3" style="stroke: #038048; stroke-width: 1.0;"/><text fill="#000000" font-family="sans-serif" font-size="11" lengthAdjust="spacingAndGlyphs" textLength="111" x="575.5" y="167.3652">created_at : datetime</text><ellipse cx="566.5" cy="177.6631" fill="none" rx="3" ry="3" style="stroke: #038048; stroke-width: 1.0;"/><text fill="#000000" font-family="sans-serif" font-size="11" lengthAdjust="spacingAndGlyphs" textLength="115" x="575.5" y="180.3203">updated_at : datetime</text><line style="stroke: #A80036; stroke-width: 1.5;" x1="556.5" x2="703.5" y1="186.6406" y2="186.6406"/><!--class HelpRequestsController--><rect fill="#FEFECE" filter="url(#f1h75stn8pmdnj)" height="151.6406" id="HelpRequestsController" style="stroke: #A80036; stroke-width: 1.5;" width="168" x="22" y="43"/><ellipse cx="37" cy="59" fill="#ADD1B2" rx="11" ry="11" style="stroke: #A80036; stroke-width: 1.0;"/><path d="M39.9731,64.6431 Q39.3921,64.9419 38.7529,65.0913 Q38.1138,65.2407 37.4082,65.2407 Q34.9014,65.2407 33.5815,63.5889 Q32.2617,61.937 32.2617,58.8159 Q32.2617,55.6865 33.5815,54.0347 Q34.9014,52.3828 37.4082,52.3828 Q38.1138,52.3828 38.7612,52.5322 Q39.4087,52.6816 39.9731,52.9805 L39.9731,55.7031 Q39.3423,55.1221 38.7488,54.8523 Q38.1553,54.5825 37.5244,54.5825 Q36.1797,54.5825 35.4949,55.6492 Q34.8101,56.7158 34.8101,58.8159 Q34.8101,60.9077 35.4949,61.9744 Q36.1797,63.041 37.5244,63.041 Q38.1553,63.041 38.7488,62.7712 Q39.3423,62.5015 39.9731,61.9204 Z "/><text fill="#000000" font-family="sans-serif" font-size="12" lengthAdjust="spacingAndGlyphs" textLength="136" x="51" y="63.5352">HelpRequestsController</text><line style="stroke: #A80036; stroke-width: 1.5;" x1="23" x2="189" y1="75" y2="75"/><ellipse cx="33" cy="86.9775" fill="none" rx="3" ry="3" style="stroke: #038048; stroke-width: 1.0;"/><text fill="#000000" font-family="sans-serif" font-size="11" lengthAdjust="spacingAndGlyphs" textLength="57" x="42" y="89.6348">def update</text><ellipse cx="33" cy="99.9326" fill="none" rx="3" ry="3" style="stroke: #038048; stroke-width: 1.0;"/><text fill="#000000" font-family="sans-serif" font-size="11" lengthAdjust="spacingAndGlyphs" textLength="53" x="42" y="102.5898">def create</text><ellipse cx="33" cy="112.8877" fill="none" rx="3" ry="3" style="stroke: #038048; stroke-width: 1.0;"/><text fill="#000000" font-family="sans-serif" font-size="11" lengthAdjust="spacingAndGlyphs" textLength="61" x="42" y="115.5449">def destroy</text><ellipse cx="33" cy="125.8428" fill="none" rx="3" ry="3" style="stroke: #038048; stroke-width: 1.0;"/><text fill="#000000" font-family="sans-serif" font-size="11" lengthAdjust="spacingAndGlyphs" textLength="50" x="42" y="128.5">def index</text><ellipse cx="33" cy="138.7979" fill="none" rx="3" ry="3" style="stroke: #038048; stroke-width: 1.0;"/><text fill="#000000" font-family="sans-serif" font-size="11" lengthAdjust="spacingAndGlyphs" textLength="50" x="42" y="141.4551">def index</text><ellipse cx="33" cy="151.7529" fill="none" rx="3" ry="3" style="stroke: #038048; stroke-width: 1.0;"/><text fill="#000000" font-family="sans-serif" font-size="11" lengthAdjust="spacingAndGlyphs" textLength="41" x="42" y="154.4102">def new</text><ellipse cx="33" cy="164.708" fill="none" rx="3" ry="3" style="stroke: #038048; stroke-width: 1.0;"/><text fill="#000000" font-family="sans-serif" font-size="11" lengthAdjust="spacingAndGlyphs" textLength="48" x="42" y="167.3652">def show</text><ellipse cx="33" cy="177.6631" fill="none" rx="3" ry="3" style="stroke: #038048; stroke-width: 1.0;"/><text fill="#000000" font-family="sans-serif" font-size="11" lengthAdjust="spacingAndGlyphs" textLength="87" x="42" y="180.3203">def bot_callback</text><line style="stroke: #A80036; stroke-width: 1.5;" x1="23" x2="189" y1="186.6406" y2="186.6406"/><!--class RoomsController--><rect fill="#FEFECE" filter="url(#f1h75stn8pmdnj)" height="112.7754" id="RoomsController" style="stroke: #A80036; stroke-width: 1.5;" width="127" x="225.5" y="62.5"/><ellipse cx="240.5" cy="78.5" fill="#ADD1B2" rx="11" ry="11" style="stroke: #A80036; stroke-width: 1.0;"/><path d="M243.4731,84.1431 Q242.8921,84.4419 242.2529,84.5913 Q241.6138,84.7407 240.9082,84.7407 Q238.4014,84.7407 237.0815,83.0889 Q235.7617,81.437 235.7617,78.3159 Q235.7617,75.1865 237.0815,73.5347 Q238.4014,71.8828 240.9082,71.8828 Q241.6138,71.8828 242.2612,72.0322 Q242.9087,72.1816 243.4731,72.4805 L243.4731,75.2031 Q242.8423,74.6221 242.2488,74.3523 Q241.6553,74.0825 241.0244,74.0825 Q239.6797,74.0825 238.9949,75.1492 Q238.3101,76.2158 238.3101,78.3159 Q238.3101,80.4077 238.9949,81.4744 Q239.6797,82.541 241.0244,82.541 Q241.6553,82.541 242.2488,82.2712 Q242.8423,82.0015 243.4731,81.4204 Z "/><text fill="#000000" font-family="sans-serif" font-size="12" lengthAdjust="spacingAndGlyphs" textLength="95" x="254.5" y="83.0352">RoomsController</text><line style="stroke: #A80036; stroke-width: 1.5;" x1="226.5" x2="351.5" y1="94.5" y2="94.5"/><ellipse cx="236.5" cy="106.4775" fill="none" rx="3" ry="3" style="stroke: #038048; stroke-width: 1.0;"/><text fill="#000000" font-family="sans-serif" font-size="11" lengthAdjust="spacingAndGlyphs" textLength="53" x="245.5" y="109.1348">def create</text><ellipse cx="236.5" cy="119.4326" fill="none" rx="3" ry="3" style="stroke: #038048; stroke-width: 1.0;"/><text fill="#000000" font-family="sans-serif" font-size="11" lengthAdjust="spacingAndGlyphs" textLength="61" x="245.5" y="122.0898">def destroy</text><ellipse cx="236.5" cy="132.3877" fill="none" rx="3" ry="3" style="stroke: #038048; stroke-width: 1.0;"/><text fill="#000000" font-family="sans-serif" font-size="11" lengthAdjust="spacingAndGlyphs" textLength="50" x="245.5" y="135.0449">def index</text><ellipse cx="236.5" cy="145.3428" fill="none" rx="3" ry="3" style="stroke: #038048; stroke-width: 1.0;"/><text fill="#000000" font-family="sans-serif" font-size="11" lengthAdjust="spacingAndGlyphs" textLength="41" x="245.5" y="148">def new</text><ellipse cx="236.5" cy="158.2979" fill="none" rx="3" ry="3" style="stroke: #038048; stroke-width: 1.0;"/><text fill="#000000" font-family="sans-serif" font-size="11" lengthAdjust="spacingAndGlyphs" textLength="48" x="245.5" y="160.9551">def show</text><line style="stroke: #A80036; stroke-width: 1.5;" x1="226.5" x2="351.5" y1="167.2754" y2="167.2754"/><!--class EventsController--><rect fill="#FEFECE" filter="url(#f1h75stn8pmdnj)" height="112.7754" id="EventsController" style="stroke: #A80036; stroke-width: 1.5;" width="125" x="387.5" y="62.5"/><ellipse cx="402.5" cy="78.5" fill="#ADD1B2" rx="11" ry="11" style="stroke: #A80036; stroke-width: 1.0;"/><path d="M405.4731,84.1431 Q404.8921,84.4419 404.2529,84.5913 Q403.6138,84.7407 402.9082,84.7407 Q400.4014,84.7407 399.0815,83.0889 Q397.7617,81.437 397.7617,78.3159 Q397.7617,75.1865 399.0815,73.5347 Q400.4014,71.8828 402.9082,71.8828 Q403.6138,71.8828 404.2612,72.0322 Q404.9087,72.1816 405.4731,72.4805 L405.4731,75.2031 Q404.8423,74.6221 404.2488,74.3523 Q403.6553,74.0825 403.0244,74.0825 Q401.6797,74.0825 400.9949,75.1492 Q400.3101,76.2158 400.3101,78.3159 Q400.3101,80.4077 400.9949,81.4744 Q401.6797,82.541 403.0244,82.541 Q403.6553,82.541 404.2488,82.2712 Q404.8423,82.0015 405.4731,81.4204 Z "/><text fill="#000000" font-family="sans-serif" font-size="12" lengthAdjust="spacingAndGlyphs" textLength="93" x="416.5" y="83.0352">EventsController</text><line style="stroke: #A80036; stroke-width: 1.5;" x1="388.5" x2="511.5" y1="94.5" y2="94.5"/><ellipse cx="398.5" cy="106.4775" fill="none" rx="3" ry="3" style="stroke: #038048; stroke-width: 1.0;"/><text fill="#000000" font-family="sans-serif" font-size="11" lengthAdjust="spacingAndGlyphs" textLength="53" x="407.5" y="109.1348">def create</text><ellipse cx="398.5" cy="119.4326" fill="none" rx="3" ry="3" style="stroke: #038048; stroke-width: 1.0;"/><text fill="#000000" font-family="sans-serif" font-size="11" lengthAdjust="spacingAndGlyphs" textLength="61" x="407.5" y="122.0898">def destroy</text><ellipse cx="398.5" cy="132.3877" fill="none" rx="3" ry="3" style="stroke: #038048; stroke-width: 1.0;"/><text fill="#000000" font-family="sans-serif" font-size="11" lengthAdjust="spacingAndGlyphs" textLength="50" x="407.5" y="135.0449">def index</text><ellipse cx="398.5" cy="145.3428" fill="none" rx="3" ry="3" style="stroke: #038048; stroke-width: 1.0;"/><text fill="#000000" font-family="sans-serif" font-size="11" lengthAdjust="spacingAndGlyphs" textLength="41" x="407.5" y="148">def new</text><ellipse cx="398.5" cy="158.2979" fill="none" rx="3" ry="3" style="stroke: #038048; stroke-width: 1.0;"/><text fill="#000000" font-family="sans-serif" font-size="11" lengthAdjust="spacingAndGlyphs" textLength="48" x="407.5" y="160.9551">def show</text><line style="stroke: #A80036; stroke-width: 1.5;" x1="388.5" x2="511.5" y1="167.2754" y2="167.2754"/><!--class NotificationsController--><rect fill="#FEFECE" filter="url(#f1h75stn8pmdnj)" height="125.7305" id="NotificationsController" style="stroke: #A80036; stroke-width: 1.5;" width="160" x="22" y="268"/><ellipse cx="37.9" cy="284" fill="#ADD1B2" rx="11" ry="11" style="stroke: #A80036; stroke-width: 1.0;"/><path d="M40.8731,289.6431 Q40.2921,289.9419 39.6529,290.0913 Q39.0138,290.2407 38.3082,290.2407 Q35.8014,290.2407 34.4815,288.5889 Q33.1617,286.937 33.1617,283.8159 Q33.1617,280.6865 34.4815,279.0347 Q35.8014,277.3828 38.3082,277.3828 Q39.0138,277.3828 39.6612,277.5322 Q40.3087,277.6816 40.8731,277.9805 L40.8731,280.7031 Q40.2423,280.1221 39.6488,279.8523 Q39.0553,279.5825 38.4244,279.5825 Q37.0797,279.5825 36.3949,280.6492 Q35.7101,281.7158 35.7101,283.8159 Q35.7101,285.9077 36.3949,286.9744 Q37.0797,288.041 38.4244,288.041 Q39.0553,288.041 39.6488,287.7712 Q40.2423,287.5015 40.8731,286.9204 Z "/><text fill="#000000" font-family="sans-serif" font-size="12" lengthAdjust="spacingAndGlyphs" textLength="126" x="52.1" y="288.5352">NotificationsController</text><line style="stroke: #A80036; stroke-width: 1.5;" x1="23" x2="181" y1="300" y2="300"/><ellipse cx="33" cy="311.9775" fill="none" rx="3" ry="3" style="stroke: #038048; stroke-width: 1.0;"/><text fill="#000000" font-family="sans-serif" font-size="11" lengthAdjust="spacingAndGlyphs" textLength="53" x="42" y="314.6348">def create</text><ellipse cx="33" cy="324.9326" fill="none" rx="3" ry="3" style="stroke: #038048; stroke-width: 1.0;"/><text fill="#000000" font-family="sans-serif" font-size="11" lengthAdjust="spacingAndGlyphs" textLength="61" x="42" y="327.5898">def destroy</text><ellipse cx="33" cy="337.8877" fill="none" rx="3" ry="3" style="stroke: #038048; stroke-width: 1.0;"/><text fill="#000000" font-family="sans-serif" font-size="11" lengthAdjust="spacingAndGlyphs" textLength="50" x="42" y="340.5449">def index</text><ellipse cx="33" cy="350.8428" fill="none" rx="3" ry="3" style="stroke: #038048; stroke-width: 1.0;"/><text fill="#000000" font-family="sans-serif" font-size="11" lengthAdjust="spacingAndGlyphs" textLength="134" x="42" y="353.5">def make_announcement</text><ellipse cx="33" cy="363.7979" fill="none" rx="3" ry="3" style="stroke: #038048; stroke-width: 1.0;"/><text fill="#000000" font-family="sans-serif" font-size="11" lengthAdjust="spacingAndGlyphs" textLength="41" x="42" y="366.4551">def new</text><ellipse cx="33" cy="376.7529" fill="none" rx="3" ry="3" style="stroke: #038048; stroke-width: 1.0;"/><text fill="#000000" font-family="sans-serif" font-size="11" lengthAdjust="spacingAndGlyphs" textLength="48" x="42" y="379.4102">def show</text><line style="stroke: #A80036; stroke-width: 1.5;" x1="23" x2="181" y1="385.7305" y2="385.7305"/><!--class UsersController--><rect fill="#FEFECE" filter="url(#f1h75stn8pmdnj)" height="151.6406" id="UsersController" style="stroke: #A80036; stroke-width: 1.5;" width="120" x="217" y="255"/><ellipse cx="232" cy="271" fill="#ADD1B2" rx="11" ry="11" style="stroke: #A80036; stroke-width: 1.0;"/><path d="M234.9731,276.6431 Q234.3921,276.9419 233.7529,277.0913 Q233.1138,277.2407 232.4082,277.2407 Q229.9014,277.2407 228.5815,275.5889 Q227.2617,273.937 227.2617,270.8159 Q227.2617,267.6865 228.5815,266.0347 Q229.9014,264.3828 232.4082,264.3828 Q233.1138,264.3828 233.7612,264.5322 Q234.4087,264.6816 234.9731,264.9805 L234.9731,267.7031 Q234.3423,267.1221 233.7488,266.8523 Q233.1553,266.5825 232.5244,266.5825 Q231.1797,266.5825 230.4949,267.6492 Q229.8101,268.7158 229.8101,270.8159 Q229.8101,272.9077 230.4949,273.9744 Q231.1797,275.041 232.5244,275.041 Q233.1553,275.041 233.7488,274.7712 Q234.3423,274.5015 234.9731,273.9204 Z "/><text fill="#000000" font-family="sans-serif" font-size="12" lengthAdjust="spacingAndGlyphs" textLength="88" x="246" y="275.5352">UsersController</text><line style="stroke: #A80036; stroke-width: 1.5;" x1="218" x2="336" y1="287" y2="287"/><ellipse cx="228" cy="298.9775" fill="none" rx="3" ry="3" style="stroke: #038048; stroke-width: 1.0;"/><text fill="#000000" font-family="sans-serif" font-size="11" lengthAdjust="spacingAndGlyphs" textLength="61" x="237" y="301.6348">def destroy</text><ellipse cx="228" cy="311.9326" fill="none" rx="3" ry="3" style="stroke: #038048; stroke-width: 1.0;"/><text fill="#000000" font-family="sans-serif" font-size="11" lengthAdjust="spacingAndGlyphs" textLength="90" x="237" y="314.5898">def help_request</text><ellipse cx="228" cy="324.8877" fill="none" rx="3" ry="3" style="stroke: #038048; stroke-width: 1.0;"/><text fill="#000000" font-family="sans-serif" font-size="11" lengthAdjust="spacingAndGlyphs" textLength="50" x="237" y="327.5449">def index</text><ellipse cx="228" cy="337.8428" fill="none" rx="3" ry="3" style="stroke: #038048; stroke-width: 1.0;"/><text fill="#000000" font-family="sans-serif" font-size="11" lengthAdjust="spacingAndGlyphs" textLength="41" x="237" y="340.5">def new</text><ellipse cx="228" cy="350.7979" fill="none" rx="3" ry="3" style="stroke: #038048; stroke-width: 1.0;"/><text fill="#000000" font-family="sans-serif" font-size="11" lengthAdjust="spacingAndGlyphs" textLength="87" x="237" y="353.4551">def notifications</text><ellipse cx="228" cy="363.7529" fill="none" rx="3" ry="3" style="stroke: #038048; stroke-width: 1.0;"/><text fill="#000000" font-family="sans-serif" font-size="11" lengthAdjust="spacingAndGlyphs" textLength="48" x="237" y="366.4102">def show</text><ellipse cx="228" cy="376.708" fill="none" rx="3" ry="3" style="stroke: #038048; stroke-width: 1.0;"/><text fill="#000000" font-family="sans-serif" font-size="11" lengthAdjust="spacingAndGlyphs" textLength="57" x="237" y="379.3652">def update</text><ellipse cx="228" cy="389.6631" fill="none" rx="3" ry="3" style="stroke: #038048; stroke-width: 1.0;"/><text fill="#000000" font-family="sans-serif" font-size="11" lengthAdjust="spacingAndGlyphs" textLength="53" x="237" y="392.3203">def create</text><line style="stroke: #A80036; stroke-width: 1.5;" x1="218" x2="336" y1="398.6406" y2="398.6406"/><!--class CompaniesController--><rect fill="#FEFECE" filter="url(#f1h75stn8pmdnj)" height="112.7754" id="CompaniesController" style="stroke: #A80036; stroke-width: 1.5;" width="152" x="372" y="274.5"/><ellipse cx="387" cy="290.5" fill="#ADD1B2" rx="11" ry="11" style="stroke: #A80036; stroke-width: 1.0;"/><path d="M389.9731,296.1431 Q389.3921,296.4419 388.7529,296.5913 Q388.1138,296.7407 387.4082,296.7407 Q384.9014,296.7407 383.5815,295.0889 Q382.2617,293.437 382.2617,290.3159 Q382.2617,287.1865 383.5815,285.5347 Q384.9014,283.8828 387.4082,283.8828 Q388.1138,283.8828 388.7612,284.0322 Q389.4087,284.1816 389.9731,284.4805 L389.9731,287.2031 Q389.3423,286.6221 388.7488,286.3523 Q388.1553,286.0825 387.5244,286.0825 Q386.1797,286.0825 385.4949,287.1492 Q384.8101,288.2158 384.8101,290.3159 Q384.8101,292.4077 385.4949,293.4744 Q386.1797,294.541 387.5244,294.541 Q388.1553,294.541 388.7488,294.2712 Q389.3423,294.0015 389.9731,293.4204 Z "/><text fill="#000000" font-family="sans-serif" font-size="12" lengthAdjust="spacingAndGlyphs" textLength="120" x="401" y="295.0352">CompaniesController</text><line style="stroke: #A80036; stroke-width: 1.5;" x1="373" x2="523" y1="306.5" y2="306.5"/><ellipse cx="383" cy="318.4775" fill="none" rx="3" ry="3" style="stroke: #038048; stroke-width: 1.0;"/><text fill="#000000" font-family="sans-serif" font-size="11" lengthAdjust="spacingAndGlyphs" textLength="53" x="392" y="321.1348">def create</text><ellipse cx="383" cy="331.4326" fill="none" rx="3" ry="3" style="stroke: #038048; stroke-width: 1.0;"/><text fill="#000000" font-family="sans-serif" font-size="11" lengthAdjust="spacingAndGlyphs" textLength="61" x="392" y="334.0898">def destroy</text><ellipse cx="383" cy="344.3877" fill="none" rx="3" ry="3" style="stroke: #038048; stroke-width: 1.0;"/><text fill="#000000" font-family="sans-serif" font-size="11" lengthAdjust="spacingAndGlyphs" textLength="50" x="392" y="347.0449">def index</text><ellipse cx="383" cy="357.3428" fill="none" rx="3" ry="3" style="stroke: #038048; stroke-width: 1.0;"/><text fill="#000000" font-family="sans-serif" font-size="11" lengthAdjust="spacingAndGlyphs" textLength="41" x="392" y="360">def new</text><ellipse cx="383" cy="370.2979" fill="none" rx="3" ry="3" style="stroke: #038048; stroke-width: 1.0;"/><text fill="#000000" font-family="sans-serif" font-size="11" lengthAdjust="spacingAndGlyphs" textLength="48" x="392" y="372.9551">def show</text><line style="stroke: #A80036; stroke-width: 1.5;" x1="373" x2="523" y1="379.2754" y2="379.2754"/><!--link Event to Company--><path d="M810,195.2374 C810,215.1543 810,236.5967 810,256.4261 " fill="none" id="Event-Company" style="stroke: #A80036; stroke-width: 1.0;"/><polygon fill="#A80036" points="810,261.4308,814,252.4308,810,256.4308,806,252.4308,810,261.4308" style="stroke: #A80036; stroke-width: 1.0;"/><text fill="#000000" font-family="sans-serif" font-size="13" lengthAdjust="spacingAndGlyphs" textLength="24" x="784.9313" y="215.2935">0..n</text><text fill="#000000" font-family="sans-serif" font-size="13" lengthAdjust="spacingAndGlyphs" textLength="8" x="801.5625" y="250.6039">1</text><!--link Event to Room--><path d="M873.2914,195.2374 C893.7867,219.9248 916.2278,246.9562 935.6524,270.3541 " fill="none" id="Event-Room" style="stroke: #A80036; stroke-width: 1.0;"/><polygon fill="#A80036" points="938.9924,274.3772,936.3212,264.8975,935.7986,270.5302,930.166,270.0075,938.9924,274.3772" style="stroke: #A80036; stroke-width: 1.0;"/><text fill="#000000" font-family="sans-serif" font-size="13" lengthAdjust="spacingAndGlyphs" textLength="24" x="853.8595" y="215.2935">0..n</text><text fill="#000000" font-family="sans-serif" font-size="13" lengthAdjust="spacingAndGlyphs" textLength="8" x="924.4571" y="263.7641">1</text><!--link Building to Room--><path d="M986,175.5336 C986,204.4057 986,239.5893 986,269.179 " fill="none" id="Building-Room" style="stroke: #A80036; stroke-width: 1.0;"/><polygon fill="#A80036" points="986,274.2559,990,265.2559,986,269.2559,982,265.2559,986,274.2559" style="stroke: #A80036; stroke-width: 1.0;"/><text fill="#000000" font-family="sans-serif" font-size="13" lengthAdjust="spacingAndGlyphs" textLength="8" x="977.5125" y="195.9387">1</text><text fill="#000000" font-family="sans-serif" font-size="13" lengthAdjust="spacingAndGlyphs" textLength="24" x="960.4625" y="263.6273">0..n</text><!--link HelpRequest to User--><path d="M630,195.2374 C630,219.5168 630,246.0632 630,269.1909 " fill="none" id="HelpRequest-User" style="stroke: #A80036; stroke-width: 1.0;"/><polygon fill="#A80036" points="630,274.3772,634,265.3772,630,269.3772,626,265.3772,630,274.3772" style="stroke: #A80036; stroke-width: 1.0;"/><text fill="#000000" font-family="sans-serif" font-size="13" lengthAdjust="spacingAndGlyphs" textLength="8" x="621.6438" y="215.2935">1</text><text fill="#000000" font-family="sans-serif" font-size="13" lengthAdjust="spacingAndGlyphs" textLength="8" x="621.4875" y="263.7641">1</text><!--link HelpRequestsController to RoomsController--><!--link RoomsController to EventsController--><!--link HelpRequestsController to NotificationsController--><!--link NotificationsController to UsersController--><!--link UsersController to CompaniesController--><!--
@startuml
package models {
  class User {
    + id : int
    + name : string
    + token : string
    + created_at : datetime
    + updated_at : datetime
  }
  class Building {
    + id : int
    + name : string
    + initials : string
    + created_at : datetime
    + updated_at : datetime
  }
  class Company {
    + id : int
    + name : string
    + tier : string
    + website_url : string
    + logo : string
    + created_at : datetime
    + updated_at : datetime
  }
  class Room {
    + id : int
    + room_type : string
    + name : string
    + created_at : datetime
    + updated_at : datetime
  }
  class Event {
    + id : int
    + name : string
    + start_time : datetime
    + end_time : datetime
    + event_type : string
    + description : string
    + created_at : datetime
    + updated_at : datetime
  }
  class HelpRequest {
    + id : int
    + profile_pic_link : string
    + location : string
    + problem : string
    + mentors : string[]
    + status : string
    + created_at : datetime
    + updated_at : datetime
  }

  Event "0..n" - -> "1" Company
  Event "0..n" - -> "1" Room
  Building "1" - -> "0..n" Room
  HelpRequest "1" - -> "1" User
}

package controllers {
  class HelpRequestsController {
    + def update
    + def create
    + def destroy
    + def index
    + def index
    + def new
    + def show
    + def bot_callback
  }
  class RoomsController {
    + def create
    + def destroy
    + def index
    + def new
    + def show
  }
  class EventsController {
    + def create
    + def destroy
    + def index
    + def new
    + def show
  }
  class NotificationsController {
    + def create
    + def destroy
    + def index
    + def make_announcement
    + def new
    + def show
  }
  class UsersController {
    + def destroy
    + def help_request
    + def index
    + def new
    + def notifications
    + def show
    + def update
    + def create
  }
  class CompaniesController {
    + def create
    + def destroy
    + def index
    + def new
    + def show
  }
}
@enduml

PlantUML version 1.2017.18(Fri Oct 06 12:56:32 EDT 2017)
(GPL source distribution)
Java Runtime: OpenJDK Runtime Environment
JVM: OpenJDK 64-Bit Server VM
Java Version: 1.8.0_152-release-915-b08
Operating System: Mac OS X
OS Version: 10.13.1
Default Encoding: UTF-8
Language: en
Country: CA
--></g></svg>