<?xml version="1.0" encoding="UTF-8" standalone="no"?>
<!DOCTYPE svg PUBLIC "-//W3C//DTD SVG 1.1//EN"
 "http://www.w3.org/Graphics/SVG/1.1/DTD/svg11.dtd">
<!-- Generated by graphviz version 2.40.1 (20161225.0304)
 -->
<!-- Title: controllers_diagram Pages: 1 -->
<svg width="612pt" height="631pt"
 viewBox="0.00 0.00 612.00 631.00" xmlns="http://www.w3.org/2000/svg" xmlns:xlink="http://www.w3.org/1999/xlink">
<g id="graph0" class="graph" transform="scale(1 1) rotate(0) translate(4 627)">
<title>controllers_diagram</title>
<polygon fill="transparent" stroke="transparent" points="-4,4 -4,-627 608,-627 608,4 -4,4"/>
<!-- _diagram_info -->
<g id="node1" class="node">
<title>_diagram_info</title>
<text text-anchor="start" x="110" y="-432.6" font-family="Times,serif" font-size="13.00" fill="#000000">Controllers diagram</text>
<text text-anchor="start" x="110" y="-419.6" font-family="Times,serif" font-size="13.00" fill="#000000">Date: Nov 17 2017 &#45; 17:51</text>
<text text-anchor="start" x="110" y="-406.6" font-family="Times,serif" font-size="13.00" fill="#000000">Migration version: 20171112030557</text>
<text text-anchor="start" x="110" y="-393.6" font-family="Times,serif" font-size="13.00" fill="#000000">Generated by RailRoady 1.5.3</text>
<text text-anchor="start" x="110" y="-380.6" font-family="Times,serif" font-size="13.00" fill="#000000">http://railroady.prestonlee.com</text>
</g>
<!-- ApplicationController -->
<g id="node2" class="node">
<title>ApplicationController</title>
<path fill="none" stroke="#000000" d="M250,-17.5C250,-17.5 365.6416,-17.5 365.6416,-17.5 371.6416,-17.5 377.6416,-23.5 377.6416,-29.5 377.6416,-29.5 377.6416,-97.5 377.6416,-97.5 377.6416,-103.5 371.6416,-109.5 365.6416,-109.5 365.6416,-109.5 250,-109.5 250,-109.5 244,-109.5 238,-103.5 238,-97.5 238,-97.5 238,-29.5 238,-29.5 238,-23.5 244,-17.5 250,-17.5"/>
<text text-anchor="middle" x="307.8208" y="-94.3" font-family="Times,serif" font-size="14.00" fill="#000000">ApplicationController</text>
<polyline fill="none" stroke="#000000" points="238,-87.5 377.6416,-87.5 "/>
<polyline fill="none" stroke="#000000" points="238,-63.5 377.6416,-63.5 "/>
<polyline fill="none" stroke="#000000" points="238,-39.5 377.6416,-39.5 "/>
<text text-anchor="start" x="246" y="-24.3" font-family="Times,serif" font-size="14.00" fill="#000000">_layout</text>
</g>
<!-- EventsController -->
<g id="node3" class="node">
<title>EventsController</title>
<path fill="none" stroke="#000000" d="M12,-.5C12,-.5 99.6484,-.5 99.6484,-.5 105.6484,-.5 111.6484,-6.5 111.6484,-12.5 111.6484,-12.5 111.6484,-134.5 111.6484,-134.5 111.6484,-140.5 105.6484,-146.5 99.6484,-146.5 99.6484,-146.5 12,-146.5 12,-146.5 6,-146.5 0,-140.5 0,-134.5 0,-134.5 0,-12.5 0,-12.5 0,-6.5 6,-.5 12,-.5"/>
<text text-anchor="middle" x="55.8242" y="-131.3" font-family="Times,serif" font-size="14.00" fill="#000000">EventsController</text>
<polyline fill="none" stroke="#000000" points="0,-124.5 111.6484,-124.5 "/>
<text text-anchor="start" x="8" y="-109.3" font-family="Times,serif" font-size="14.00" fill="#000000">create</text>
<text text-anchor="start" x="8" y="-95.3" font-family="Times,serif" font-size="14.00" fill="#000000">destroy</text>
<text text-anchor="start" x="8" y="-81.3" font-family="Times,serif" font-size="14.00" fill="#000000">index</text>
<text text-anchor="start" x="8" y="-67.3" font-family="Times,serif" font-size="14.00" fill="#000000">new</text>
<text text-anchor="start" x="8" y="-53.3" font-family="Times,serif" font-size="14.00" fill="#000000">show</text>
<polyline fill="none" stroke="#000000" points="0,-46.5 111.6484,-46.5 "/>
<polyline fill="none" stroke="#000000" points="0,-22.5 111.6484,-22.5 "/>
<text text-anchor="start" x="8" y="-7.3" font-family="Times,serif" font-size="14.00" fill="#000000">_layout</text>
</g>
<!-- RoomsController -->
<g id="node4" class="node">
<title>RoomsController</title>
<path fill="none" stroke="#000000" d="M12,-187.5C12,-187.5 101.2207,-187.5 101.2207,-187.5 107.2207,-187.5 113.2207,-193.5 113.2207,-199.5 113.2207,-199.5 113.2207,-321.5 113.2207,-321.5 113.2207,-327.5 107.2207,-333.5 101.2207,-333.5 101.2207,-333.5 12,-333.5 12,-333.5 6,-333.5 0,-327.5 0,-321.5 0,-321.5 0,-199.5 0,-199.5 0,-193.5 6,-187.5 12,-187.5"/>
<text text-anchor="middle" x="56.6104" y="-318.3" font-family="Times,serif" font-size="14.00" fill="#000000">RoomsController</text>
<polyline fill="none" stroke="#000000" points="0,-311.5 113.2207,-311.5 "/>
<text text-anchor="start" x="8" y="-296.3" font-family="Times,serif" font-size="14.00" fill="#000000">create</text>
<text text-anchor="start" x="8" y="-282.3" font-family="Times,serif" font-size="14.00" fill="#000000">destroy</text>
<text text-anchor="start" x="8" y="-268.3" font-family="Times,serif" font-size="14.00" fill="#000000">index</text>
<text text-anchor="start" x="8" y="-254.3" font-family="Times,serif" font-size="14.00" fill="#000000">new</text>
<text text-anchor="start" x="8" y="-240.3" font-family="Times,serif" font-size="14.00" fill="#000000">show</text>
<polyline fill="none" stroke="#000000" points="0,-233.5 113.2207,-233.5 "/>
<polyline fill="none" stroke="#000000" points="0,-209.5 113.2207,-209.5 "/>
<text text-anchor="start" x="8" y="-194.3" font-family="Times,serif" font-size="14.00" fill="#000000">_layout</text>
</g>
<!-- NotificationsController -->
<g id="node5" class="node">
<title>NotificationsController</title>
<path fill="none" stroke="#000000" d="M352,-136.5C352,-136.5 473.876,-136.5 473.876,-136.5 479.876,-136.5 485.876,-142.5 485.876,-148.5 485.876,-148.5 485.876,-284.5 485.876,-284.5 485.876,-290.5 479.876,-296.5 473.876,-296.5 473.876,-296.5 352,-296.5 352,-296.5 346,-296.5 340,-290.5 340,-284.5 340,-284.5 340,-148.5 340,-148.5 340,-142.5 346,-136.5 352,-136.5"/>
<text text-anchor="middle" x="412.938" y="-281.3" font-family="Times,serif" font-size="14.00" fill="#000000">NotificationsController</text>
<polyline fill="none" stroke="#000000" points="340,-274.5 485.876,-274.5 "/>
<text text-anchor="start" x="348" y="-259.3" font-family="Times,serif" font-size="14.00" fill="#000000">create</text>
<text text-anchor="start" x="348" y="-245.3" font-family="Times,serif" font-size="14.00" fill="#000000">destroy</text>
<text text-anchor="start" x="348" y="-231.3" font-family="Times,serif" font-size="14.00" fill="#000000">index</text>
<text text-anchor="start" x="348" y="-217.3" font-family="Times,serif" font-size="14.00" fill="#000000">make_announcement</text>
<text text-anchor="start" x="348" y="-203.3" font-family="Times,serif" font-size="14.00" fill="#000000">new</text>
<text text-anchor="start" x="348" y="-189.3" font-family="Times,serif" font-size="14.00" fill="#000000">show</text>
<polyline fill="none" stroke="#000000" points="340,-182.5 485.876,-182.5 "/>
<polyline fill="none" stroke="#000000" points="340,-158.5 485.876,-158.5 "/>
<text text-anchor="start" x="348" y="-143.3" font-family="Times,serif" font-size="14.00" fill="#000000">_layout</text>
</g>
<!-- BuildingsController -->
<g id="node6" class="node">
<title>BuildingsController</title>
<path fill="none" stroke="#000000" d="M488,-323.5C488,-323.5 592,-323.5 592,-323.5 598,-323.5 604,-329.5 604,-335.5 604,-335.5 604,-457.5 604,-457.5 604,-463.5 598,-469.5 592,-469.5 592,-469.5 488,-469.5 488,-469.5 482,-469.5 476,-463.5 476,-457.5 476,-457.5 476,-335.5 476,-335.5 476,-329.5 482,-323.5 488,-323.5"/>
<text text-anchor="middle" x="540" y="-454.3" font-family="Times,serif" font-size="14.00" fill="#000000">BuildingsController</text>
<polyline fill="none" stroke="#000000" points="476,-447.5 604,-447.5 "/>
<text text-anchor="start" x="484" y="-432.3" font-family="Times,serif" font-size="14.00" fill="#000000">create</text>
<text text-anchor="start" x="484" y="-418.3" font-family="Times,serif" font-size="14.00" fill="#000000">destroy</text>
<text text-anchor="start" x="484" y="-404.3" font-family="Times,serif" font-size="14.00" fill="#000000">index</text>
<text text-anchor="start" x="484" y="-390.3" font-family="Times,serif" font-size="14.00" fill="#000000">new</text>
<text text-anchor="start" x="484" y="-376.3" font-family="Times,serif" font-size="14.00" fill="#000000">show</text>
<polyline fill="none" stroke="#000000" points="476,-369.5 604,-369.5 "/>
<polyline fill="none" stroke="#000000" points="476,-345.5 604,-345.5 "/>
<text text-anchor="start" x="484" y="-330.3" font-family="Times,serif" font-size="14.00" fill="#000000">_layout</text>
</g>
<!-- UsersController -->
<g id="node7" class="node">
<title>UsersController</title>
<path fill="none" stroke="#000000" d="M352,-323.5C352,-323.5 433.4277,-323.5 433.4277,-323.5 439.4277,-323.5 445.4277,-329.5 445.4277,-335.5 445.4277,-335.5 445.4277,-513.5 445.4277,-513.5 445.4277,-519.5 439.4277,-525.5 433.4277,-525.5 433.4277,-525.5 352,-525.5 352,-525.5 346,-525.5 340,-519.5 340,-513.5 340,-513.5 340,-335.5 340,-335.5 340,-329.5 346,-323.5 352,-323.5"/>
<text text-anchor="middle" x="392.7139" y="-510.3" font-family="Times,serif" font-size="14.00" fill="#000000">UsersController</text>
<polyline fill="none" stroke="#000000" points="340,-503.5 445.4277,-503.5 "/>
<text text-anchor="start" x="348" y="-488.3" font-family="Times,serif" font-size="14.00" fill="#000000">user_params</text>
<text text-anchor="start" x="348" y="-474.3" font-family="Times,serif" font-size="14.00" fill="#000000">destroy</text>
<text text-anchor="start" x="348" y="-460.3" font-family="Times,serif" font-size="14.00" fill="#000000">help_request</text>
<text text-anchor="start" x="348" y="-446.3" font-family="Times,serif" font-size="14.00" fill="#000000">index</text>
<text text-anchor="start" x="348" y="-432.3" font-family="Times,serif" font-size="14.00" fill="#000000">new</text>
<text text-anchor="start" x="348" y="-418.3" font-family="Times,serif" font-size="14.00" fill="#000000">notifications</text>
<text text-anchor="start" x="348" y="-404.3" font-family="Times,serif" font-size="14.00" fill="#000000">show</text>
<text text-anchor="start" x="348" y="-390.3" font-family="Times,serif" font-size="14.00" fill="#000000">update</text>
<text text-anchor="start" x="348" y="-376.3" font-family="Times,serif" font-size="14.00" fill="#000000">create</text>
<polyline fill="none" stroke="#000000" points="340,-369.5 445.4277,-369.5 "/>
<polyline fill="none" stroke="#000000" points="340,-345.5 445.4277,-345.5 "/>
<text text-anchor="start" x="348" y="-330.3" font-family="Times,serif" font-size="14.00" fill="#000000">_layout</text>
</g>
<!-- CompaniesController -->
<g id="node8" class="node">
<title>CompaniesController</title>
<path fill="none" stroke="#000000" d="M182,-476.5C182,-476.5 294.5381,-476.5 294.5381,-476.5 300.5381,-476.5 306.5381,-482.5 306.5381,-488.5 306.5381,-488.5 306.5381,-610.5 306.5381,-610.5 306.5381,-616.5 300.5381,-622.5 294.5381,-622.5 294.5381,-622.5 182,-622.5 182,-622.5 176,-622.5 170,-616.5 170,-610.5 170,-610.5 170,-488.5 170,-488.5 170,-482.5 176,-476.5 182,-476.5"/>
<text text-anchor="middle" x="238.269" y="-607.3" font-family="Times,serif" font-size="14.00" fill="#000000">CompaniesController</text>
<polyline fill="none" stroke="#000000" points="170,-600.5 306.5381,-600.5 "/>
<text text-anchor="start" x="178" y="-585.3" font-family="Times,serif" font-size="14.00" fill="#000000">create</text>
<text text-anchor="start" x="178" y="-571.3" font-family="Times,serif" font-size="14.00" fill="#000000">destroy</text>
<text text-anchor="start" x="178" y="-557.3" font-family="Times,serif" font-size="14.00" fill="#000000">index</text>
<text text-anchor="start" x="178" y="-543.3" font-family="Times,serif" font-size="14.00" fill="#000000">new</text>
<text text-anchor="start" x="178" y="-529.3" font-family="Times,serif" font-size="14.00" fill="#000000">show</text>
<polyline fill="none" stroke="#000000" points="170,-522.5 306.5381,-522.5 "/>
<polyline fill="none" stroke="#000000" points="170,-498.5 306.5381,-498.5 "/>
<text text-anchor="start" x="178" y="-483.3" font-family="Times,serif" font-size="14.00" fill="#000000">_layout</text>
</g>
<!-- HelpRequestsController -->
<g id="node9" class="node">
<title>HelpRequestsController</title>
<path fill="none" stroke="#000000" d="M165,-136.5C165,-136.5 292.3105,-136.5 292.3105,-136.5 298.3105,-136.5 304.3105,-142.5 304.3105,-148.5 304.3105,-148.5 304.3105,-312.5 304.3105,-312.5 304.3105,-318.5 298.3105,-324.5 292.3105,-324.5 292.3105,-324.5 165,-324.5 165,-324.5 159,-324.5 153,-318.5 153,-312.5 153,-312.5 153,-148.5 153,-148.5 153,-142.5 159,-136.5 165,-136.5"/>
<text text-anchor="middle" x="228.6553" y="-309.3" font-family="Times,serif" font-size="14.00" fill="#000000">HelpRequestsController</text>
<polyline fill="none" stroke="#000000" points="153,-302.5 304.3105,-302.5 "/>
<text text-anchor="start" x="161" y="-287.3" font-family="Times,serif" font-size="14.00" fill="#000000">update</text>
<text text-anchor="start" x="161" y="-273.3" font-family="Times,serif" font-size="14.00" fill="#000000">create</text>
<text text-anchor="start" x="161" y="-259.3" font-family="Times,serif" font-size="14.00" fill="#000000">destroy</text>
<text text-anchor="start" x="161" y="-245.3" font-family="Times,serif" font-size="14.00" fill="#000000">help_request_params</text>
<text text-anchor="start" x="161" y="-231.3" font-family="Times,serif" font-size="14.00" fill="#000000">index</text>
<text text-anchor="start" x="161" y="-217.3" font-family="Times,serif" font-size="14.00" fill="#000000">new</text>
<text text-anchor="start" x="161" y="-203.3" font-family="Times,serif" font-size="14.00" fill="#000000">show</text>
<text text-anchor="start" x="161" y="-189.3" font-family="Times,serif" font-size="14.00" fill="#000000">bot_callback</text>
<polyline fill="none" stroke="#000000" points="153,-182.5 304.3105,-182.5 "/>
<polyline fill="none" stroke="#000000" points="153,-158.5 304.3105,-158.5 "/>
<text text-anchor="start" x="161" y="-143.3" font-family="Times,serif" font-size="14.00" fill="#000000">_layout</text>
</g>
</g>
</svg>
