<?xml version="1.0" encoding="UTF-8" standalone="no"?>
<!DOCTYPE svg PUBLIC "-//W3C//DTD SVG 1.1//EN"
 "http://www.w3.org/Graphics/SVG/1.1/DTD/svg11.dtd">
<!-- Generated by graphviz version 2.40.1 (20161225.0304)
 -->
<!-- Title: models_diagram Pages: 1 -->
<svg width="702pt" height="225pt"
 viewBox="0.00 0.00 701.61 225.00" xmlns="http://www.w3.org/2000/svg" xmlns:xlink="http://www.w3.org/1999/xlink">
<g id="graph0" class="graph" transform="scale(1 1) rotate(0) translate(4 221)">
<title>models_diagram</title>
<polygon fill="transparent" stroke="transparent" points="-4,4 -4,-221 697.6074,-221 697.6074,4 -4,4"/>
<!-- _diagram_info -->
<g id="node1" class="node">
<title>_diagram_info</title>
<text text-anchor="start" x="8" y="-202.6" font-family="Times,serif" font-size="13.00" fill="#000000">Models diagram</text>
<text text-anchor="start" x="8" y="-189.6" font-family="Times,serif" font-size="13.00" fill="#000000">Date: Nov 17 2017 &#45; 17:51</text>
<text text-anchor="start" x="8" y="-176.6" font-family="Times,serif" font-size="13.00" fill="#000000">Migration version: 20171112030557</text>
<text text-anchor="start" x="8" y="-163.6" font-family="Times,serif" font-size="13.00" fill="#000000">Generated by RailRoady 1.5.3</text>
<text text-anchor="start" x="8" y="-150.6" font-family="Times,serif" font-size="13.00" fill="#000000">http://railroady.prestonlee.com</text>
</g>
<!-- Room -->
<g id="node2" class="node">
<title>Room</title>
<ellipse fill="none" stroke="#000000" cx="265.2117" cy="-90" rx="31.9567" ry="18"/>
<text text-anchor="middle" x="265.2117" y="-85.8" font-family="Times,serif" font-size="14.00" fill="#000000">Room</text>
</g>
<!-- Event -->
<g id="node8" class="node">
<title>Event</title>
<ellipse fill="none" stroke="#000000" cx="218.2117" cy="-18" rx="30.9706" ry="18"/>
<text text-anchor="middle" x="218.2117" y="-13.8" font-family="Times,serif" font-size="14.00" fill="#000000">Event</text>
</g>
<!-- Room&#45;&gt;Event -->
<g id="edge1" class="edge">
<title>Room&#45;&gt;Event</title>
<path fill="none" stroke="#405671" d="M249.6428,-66.1498C244.955,-58.9686 239.7903,-51.0566 235.0255,-43.7573"/>
<ellipse fill="none" stroke="#405671" cx="251.8868" cy="-69.5875" rx="4" ry="4"/>
<polygon fill="#405671" stroke="#405671" points="234.7363,-43.3143 233.0383,-32.4807 232.0032,-39.1274 229.2701,-34.9405 229.2701,-34.9405 229.2701,-34.9405 232.0032,-39.1274 225.5018,-37.4003 234.7363,-43.3143 234.7363,-43.3143"/>
</g>
<!-- HelpRequest -->
<g id="node3" class="node">
<title>HelpRequest</title>
<ellipse fill="none" stroke="#000000" cx="371.2117" cy="-90" rx="55.5768" ry="18"/>
<text text-anchor="middle" x="371.2117" y="-85.8" font-family="Times,serif" font-size="14.00" fill="#000000">HelpRequest</text>
</g>
<!-- Notification -->
<g id="node4" class="node">
<title>Notification</title>
<ellipse fill="none" stroke="#000000" cx="468.2117" cy="-180.5" rx="52.2106" ry="18"/>
<text text-anchor="middle" x="468.2117" y="-176.3" font-family="Times,serif" font-size="14.00" fill="#000000">Notification</text>
</g>
<!-- Building -->
<g id="node5" class="node">
<title>Building</title>
<ellipse fill="none" stroke="#000000" cx="265.2117" cy="-180.5" rx="41.1266" ry="18"/>
<text text-anchor="middle" x="265.2117" y="-176.3" font-family="Times,serif" font-size="14.00" fill="#000000">Building</text>
</g>
<!-- Building&#45;&gt;Room -->
<g id="edge2" class="edge">
<title>Building&#45;&gt;Room</title>
<path fill="none" stroke="#96ae34" d="M265.2117,-153.9687C265.2117,-142.8402 265.2117,-129.878 265.2117,-118.5429"/>
<ellipse fill="none" stroke="#96ae34" cx="265.2117" cy="-158.186" rx="4" ry="4"/>
<polygon fill="#96ae34" stroke="#96ae34" points="265.2118,-118.2868 269.7117,-108.2867 265.2117,-113.2868 265.2117,-108.2868 265.2117,-108.2868 265.2117,-108.2868 265.2117,-113.2868 260.7117,-108.2868 265.2118,-118.2868 265.2118,-118.2868"/>
</g>
<!-- Company -->
<g id="node6" class="node">
<title>Company</title>
<ellipse fill="none" stroke="#000000" cx="171.2117" cy="-90" rx="44.4923" ry="18"/>
<text text-anchor="middle" x="171.2117" y="-85.8" font-family="Times,serif" font-size="14.00" fill="#000000">Company</text>
</g>
<!-- Company&#45;&gt;Event -->
<g id="edge3" class="edge">
<title>Company&#45;&gt;Event</title>
<path fill="none" stroke="#034198" d="M187.1379,-65.6023C191.7101,-58.5981 196.7106,-50.9378 201.3379,-43.8492"/>
<ellipse fill="none" stroke="#034198" cx="184.7756" cy="-69.2213" rx="4" ry="4"/>
<polygon fill="#034198" stroke="#034198" points="201.4728,-43.6425 210.7073,-37.7285 204.2059,-39.4556 206.9391,-35.2687 206.9391,-35.2687 206.9391,-35.2687 204.2059,-39.4556 203.1708,-32.8089 201.4728,-43.6425 201.4728,-43.6425"/>
</g>
<!-- ApplicationRecord -->
<g id="node7" class="node">
<title>ApplicationRecord</title>
<ellipse fill="none" stroke="#000000" cx="616.2117" cy="-180.5" rx="77.2916" ry="18"/>
<text text-anchor="middle" x="616.2117" y="-176.3" font-family="Times,serif" font-size="14.00" fill="#000000">ApplicationRecord</text>
</g>
<!-- User -->
<g id="node9" class="node">
<title>User</title>
<ellipse fill="none" stroke="#000000" cx="371.2117" cy="-180.5" rx="27" ry="18"/>
<text text-anchor="middle" x="371.2117" y="-176.3" font-family="Times,serif" font-size="14.00" fill="#000000">User</text>
</g>
<!-- User&#45;&gt;HelpRequest -->
<g id="edge4" class="edge">
<title>User&#45;&gt;HelpRequest</title>
<path fill="none" stroke="#25792f" d="M371.2117,-153.9687C371.2117,-142.8402 371.2117,-129.878 371.2117,-118.5429"/>
<ellipse fill="none" stroke="#25792f" cx="371.2117" cy="-158.186" rx="4" ry="4"/>
<polygon fill="#25792f" stroke="#25792f" points="371.2118,-118.2868 375.7117,-108.2867 371.2117,-113.2868 371.2117,-108.2868 371.2117,-108.2868 371.2117,-108.2868 371.2117,-113.2868 366.7117,-108.2868 371.2118,-118.2868 371.2118,-118.2868"/>
</g>
</g>
</svg>
