<?xml version="1.0" encoding="UTF-8" standalone="no"?>
<!DOCTYPE svg PUBLIC "-//W3C//DTD SVG 1.1//EN"
 "http://www.w3.org/Graphics/SVG/1.1/DTD/svg11.dtd">
<!-- Generated by graphviz version 2.40.1 (20161225.0304)
 -->
<!-- Title: models_diagram Pages: 1 -->
<svg width="852pt" height="537pt"
 viewBox="0.00 0.00 851.61 537.00" xmlns="http://www.w3.org/2000/svg" xmlns:xlink="http://www.w3.org/1999/xlink">
<g id="graph0" class="graph" transform="scale(1 1) rotate(0) translate(4 533)">
<title>models_diagram</title>
<polygon fill="transparent" stroke="transparent" points="-4,4 -4,-533 847.6074,-533 847.6074,4 -4,4"/>
<!-- _diagram_info -->
<g id="node1" class="node">
<title>_diagram_info</title>
<text text-anchor="start" x="8" y="-493.6" font-family="Times,serif" font-size="13.00" fill="#000000">Models diagram</text>
<text text-anchor="start" x="8" y="-480.6" font-family="Times,serif" font-size="13.00" fill="#000000">Date: Nov 17 2017 &#45; 17:51</text>
<text text-anchor="start" x="8" y="-467.6" font-family="Times,serif" font-size="13.00" fill="#000000">Migration version: 20171112030557</text>
<text text-anchor="start" x="8" y="-454.6" font-family="Times,serif" font-size="13.00" fill="#000000">Generated by RailRoady 1.5.3</text>
<text text-anchor="start" x="8" y="-441.6" font-family="Times,serif" font-size="13.00" fill="#000000">http://railroady.prestonlee.com</text>
</g>
<!-- Room -->
<g id="node2" class="node">
<title>Room</title>
<path fill="none" stroke="#000000" d="M236.7063,-242.5C236.7063,-242.5 345.717,-242.5 345.717,-242.5 351.717,-242.5 357.717,-248.5 357.717,-254.5 357.717,-254.5 357.717,-344.5 357.717,-344.5 357.717,-350.5 351.717,-356.5 345.717,-356.5 345.717,-356.5 236.7063,-356.5 236.7063,-356.5 230.7063,-356.5 224.7063,-350.5 224.7063,-344.5 224.7063,-344.5 224.7063,-254.5 224.7063,-254.5 224.7063,-248.5 230.7063,-242.5 236.7063,-242.5"/>
<text text-anchor="middle" x="291.2117" y="-341.3" font-family="Times,serif" font-size="14.00" fill="#000000">Room</text>
<polyline fill="none" stroke="#000000" points="224.7063,-334.5 357.717,-334.5 "/>
<text text-anchor="start" x="232.7063" y="-319.3" font-family="Times,serif" font-size="14.00" fill="#000000">id :INTEGER</text>
<text text-anchor="start" x="232.7063" y="-305.3" font-family="Times,serif" font-size="14.00" fill="#000000">building_id :integer</text>
<text text-anchor="start" x="232.7063" y="-291.3" font-family="Times,serif" font-size="14.00" fill="#000000">room_type :varchar</text>
<text text-anchor="start" x="232.7063" y="-277.3" font-family="Times,serif" font-size="14.00" fill="#000000">name :varchar</text>
<text text-anchor="start" x="232.7063" y="-263.3" font-family="Times,serif" font-size="14.00" fill="#000000">created_at :datetime</text>
<text text-anchor="start" x="232.7063" y="-249.3" font-family="Times,serif" font-size="14.00" fill="#000000">updated_at :datetime</text>
</g>
<!-- Event -->
<g id="node8" class="node">
<title>Event</title>
<path fill="none" stroke="#000000" d="M160.7063,-.5C160.7063,-.5 269.717,-.5 269.717,-.5 275.717,-.5 281.717,-6.5 281.717,-12.5 281.717,-12.5 281.717,-172.5 281.717,-172.5 281.717,-178.5 275.717,-184.5 269.717,-184.5 269.717,-184.5 160.7063,-184.5 160.7063,-184.5 154.7063,-184.5 148.7063,-178.5 148.7063,-172.5 148.7063,-172.5 148.7063,-12.5 148.7063,-12.5 148.7063,-6.5 154.7063,-.5 160.7063,-.5"/>
<text text-anchor="middle" x="215.2117" y="-169.3" font-family="Times,serif" font-size="14.00" fill="#000000">Event</text>
<polyline fill="none" stroke="#000000" points="148.7063,-162.5 281.717,-162.5 "/>
<text text-anchor="start" x="156.7063" y="-147.3" font-family="Times,serif" font-size="14.00" fill="#000000">name :varchar</text>
<text text-anchor="start" x="156.7063" y="-133.3" font-family="Times,serif" font-size="14.00" fill="#000000">room_id :integer</text>
<text text-anchor="start" x="156.7063" y="-119.3" font-family="Times,serif" font-size="14.00" fill="#000000">company_id :integer</text>
<text text-anchor="start" x="156.7063" y="-105.3" font-family="Times,serif" font-size="14.00" fill="#000000">date :date</text>
<text text-anchor="start" x="156.7063" y="-91.3" font-family="Times,serif" font-size="14.00" fill="#000000">start_time :time</text>
<text text-anchor="start" x="156.7063" y="-77.3" font-family="Times,serif" font-size="14.00" fill="#000000">end_time :time</text>
<text text-anchor="start" x="156.7063" y="-63.3" font-family="Times,serif" font-size="14.00" fill="#000000">event_type :varchar</text>
<text text-anchor="start" x="156.7063" y="-49.3" font-family="Times,serif" font-size="14.00" fill="#000000">description :varchar</text>
<text text-anchor="start" x="156.7063" y="-35.3" font-family="Times,serif" font-size="14.00" fill="#000000">created_at :datetime</text>
<text text-anchor="start" x="156.7063" y="-21.3" font-family="Times,serif" font-size="14.00" fill="#000000">updated_at :datetime</text>
<text text-anchor="start" x="156.7063" y="-7.3" font-family="Times,serif" font-size="14.00" fill="#000000">id :INTEGER</text>
</g>
<!-- Room&#45;&gt;Event -->
<g id="edge1" class="edge">
<title>Room&#45;&gt;Event</title>
<path fill="none" stroke="#bdfb79" d="M267.4338,-234.7366C262.7102,-221.871 257.644,-208.0723 252.5924,-194.3133"/>
<ellipse fill="none" stroke="#bdfb79" cx="268.8645" cy="-238.6335" rx="4" ry="4"/>
<polygon fill="#bdfb79" stroke="#bdfb79" points="252.5485,-194.1935 253.3261,-183.2552 250.8252,-189.4998 249.1019,-184.8062 249.1019,-184.8062 249.1019,-184.8062 250.8252,-189.4998 244.8776,-186.3572 252.5485,-194.1935 252.5485,-194.1935"/>
</g>
<!-- HelpRequest -->
<g id="node3" class="node">
<title>HelpRequest</title>
<path fill="none" stroke="#000000" d="M387.8167,-221.5C387.8167,-221.5 518.6067,-221.5 518.6067,-221.5 524.6067,-221.5 530.6067,-227.5 530.6067,-233.5 530.6067,-233.5 530.6067,-365.5 530.6067,-365.5 530.6067,-371.5 524.6067,-377.5 518.6067,-377.5 518.6067,-377.5 387.8167,-377.5 387.8167,-377.5 381.8167,-377.5 375.8167,-371.5 375.8167,-365.5 375.8167,-365.5 375.8167,-233.5 375.8167,-233.5 375.8167,-227.5 381.8167,-221.5 387.8167,-221.5"/>
<text text-anchor="middle" x="453.2117" y="-362.3" font-family="Times,serif" font-size="14.00" fill="#000000">HelpRequest</text>
<polyline fill="none" stroke="#000000" points="375.8167,-355.5 530.6067,-355.5 "/>
<text text-anchor="start" x="383.8167" y="-340.3" font-family="Times,serif" font-size="14.00" fill="#000000">profile_pic_link :varchar</text>
<text text-anchor="start" x="383.8167" y="-326.3" font-family="Times,serif" font-size="14.00" fill="#000000">user_id :integer</text>
<text text-anchor="start" x="383.8167" y="-312.3" font-family="Times,serif" font-size="14.00" fill="#000000">location :varchar</text>
<text text-anchor="start" x="383.8167" y="-298.3" font-family="Times,serif" font-size="14.00" fill="#000000">problem :varchar</text>
<text text-anchor="start" x="383.8167" y="-284.3" font-family="Times,serif" font-size="14.00" fill="#000000">mentors :varchar</text>
<text text-anchor="start" x="383.8167" y="-270.3" font-family="Times,serif" font-size="14.00" fill="#000000">status :varchar</text>
<text text-anchor="start" x="383.8167" y="-256.3" font-family="Times,serif" font-size="14.00" fill="#000000">created_at :datetime</text>
<text text-anchor="start" x="383.8167" y="-242.3" font-family="Times,serif" font-size="14.00" fill="#000000">updated_at :datetime</text>
<text text-anchor="start" x="383.8167" y="-228.3" font-family="Times,serif" font-size="14.00" fill="#000000">id :INTEGER</text>
</g>
<!-- Notification -->
<g id="node4" class="node">
<title>Notification</title>
<path fill="none" stroke="#000000" d="M549.7063,-414.5C549.7063,-414.5 658.717,-414.5 658.717,-414.5 664.717,-414.5 670.717,-420.5 670.717,-426.5 670.717,-426.5 670.717,-516.5 670.717,-516.5 670.717,-522.5 664.717,-528.5 658.717,-528.5 658.717,-528.5 549.7063,-528.5 549.7063,-528.5 543.7063,-528.5 537.7063,-522.5 537.7063,-516.5 537.7063,-516.5 537.7063,-426.5 537.7063,-426.5 537.7063,-420.5 543.7063,-414.5 549.7063,-414.5"/>
<text text-anchor="middle" x="604.2117" y="-513.3" font-family="Times,serif" font-size="14.00" fill="#000000">Notification</text>
<polyline fill="none" stroke="#000000" points="537.7063,-506.5 670.717,-506.5 "/>
<text text-anchor="start" x="545.7063" y="-491.3" font-family="Times,serif" font-size="14.00" fill="#000000">id :INTEGER</text>
<text text-anchor="start" x="545.7063" y="-477.3" font-family="Times,serif" font-size="14.00" fill="#000000">title :varchar</text>
<text text-anchor="start" x="545.7063" y="-463.3" font-family="Times,serif" font-size="14.00" fill="#000000">description :varchar</text>
<text text-anchor="start" x="545.7063" y="-449.3" font-family="Times,serif" font-size="14.00" fill="#000000">created_at :datetime</text>
<text text-anchor="start" x="545.7063" y="-435.3" font-family="Times,serif" font-size="14.00" fill="#000000">updated_at :datetime</text>
<text text-anchor="start" x="545.7063" y="-421.3" font-family="Times,serif" font-size="14.00" fill="#000000">user_id :integer</text>
</g>
<!-- Building -->
<g id="node5" class="node">
<title>Building</title>
<path fill="none" stroke="#000000" d="M236.7063,-421.5C236.7063,-421.5 345.717,-421.5 345.717,-421.5 351.717,-421.5 357.717,-427.5 357.717,-433.5 357.717,-433.5 357.717,-509.5 357.717,-509.5 357.717,-515.5 351.717,-521.5 345.717,-521.5 345.717,-521.5 236.7063,-521.5 236.7063,-521.5 230.7063,-521.5 224.7063,-515.5 224.7063,-509.5 224.7063,-509.5 224.7063,-433.5 224.7063,-433.5 224.7063,-427.5 230.7063,-421.5 236.7063,-421.5"/>
<text text-anchor="middle" x="291.2117" y="-506.3" font-family="Times,serif" font-size="14.00" fill="#000000">Building</text>
<polyline fill="none" stroke="#000000" points="224.7063,-499.5 357.717,-499.5 "/>
<text text-anchor="start" x="232.7063" y="-484.3" font-family="Times,serif" font-size="14.00" fill="#000000">id :INTEGER</text>
<text text-anchor="start" x="232.7063" y="-470.3" font-family="Times,serif" font-size="14.00" fill="#000000">name :varchar</text>
<text text-anchor="start" x="232.7063" y="-456.3" font-family="Times,serif" font-size="14.00" fill="#000000">initials :varchar</text>
<text text-anchor="start" x="232.7063" y="-442.3" font-family="Times,serif" font-size="14.00" fill="#000000">created_at :datetime</text>
<text text-anchor="start" x="232.7063" y="-428.3" font-family="Times,serif" font-size="14.00" fill="#000000">updated_at :datetime</text>
</g>
<!-- Building&#45;&gt;Room -->
<g id="edge2" class="edge">
<title>Building&#45;&gt;Room</title>
<path fill="none" stroke="#fa24a4" d="M291.2117,-413.0719C291.2117,-398.2896 291.2117,-382.2918 291.2117,-367.098"/>
<ellipse fill="none" stroke="#fa24a4" cx="291.2117" cy="-417.2881" rx="4" ry="4"/>
<polygon fill="#fa24a4" stroke="#fa24a4" points="291.2118,-366.7324 295.7117,-356.7324 291.2117,-361.7324 291.2117,-356.7324 291.2117,-356.7324 291.2117,-356.7324 291.2117,-361.7324 286.7117,-356.7325 291.2118,-366.7324 291.2118,-366.7324"/>
</g>
<!-- Company -->
<g id="node6" class="node">
<title>Company</title>
<path fill="none" stroke="#000000" d="M85.7063,-235.5C85.7063,-235.5 194.717,-235.5 194.717,-235.5 200.717,-235.5 206.717,-241.5 206.717,-247.5 206.717,-247.5 206.717,-351.5 206.717,-351.5 206.717,-357.5 200.717,-363.5 194.717,-363.5 194.717,-363.5 85.7063,-363.5 85.7063,-363.5 79.7063,-363.5 73.7063,-357.5 73.7063,-351.5 73.7063,-351.5 73.7063,-247.5 73.7063,-247.5 73.7063,-241.5 79.7063,-235.5 85.7063,-235.5"/>
<text text-anchor="middle" x="140.2117" y="-348.3" font-family="Times,serif" font-size="14.00" fill="#000000">Company</text>
<polyline fill="none" stroke="#000000" points="73.7063,-341.5 206.717,-341.5 "/>
<text text-anchor="start" x="81.7063" y="-326.3" font-family="Times,serif" font-size="14.00" fill="#000000">id :INTEGER</text>
<text text-anchor="start" x="81.7063" y="-312.3" font-family="Times,serif" font-size="14.00" fill="#000000">name :varchar</text>
<text text-anchor="start" x="81.7063" y="-298.3" font-family="Times,serif" font-size="14.00" fill="#000000">tier :varchar</text>
<text text-anchor="start" x="81.7063" y="-284.3" font-family="Times,serif" font-size="14.00" fill="#000000">website_url :varchar</text>
<text text-anchor="start" x="81.7063" y="-270.3" font-family="Times,serif" font-size="14.00" fill="#000000">logo :varchar</text>
<text text-anchor="start" x="81.7063" y="-256.3" font-family="Times,serif" font-size="14.00" fill="#000000">created_at :datetime</text>
<text text-anchor="start" x="81.7063" y="-242.3" font-family="Times,serif" font-size="14.00" fill="#000000">updated_at :datetime</text>
</g>
<!-- Company&#45;&gt;Event -->
<g id="edge3" class="edge">
<title>Company&#45;&gt;Event</title>
<path fill="none" stroke="#10270a" d="M166.1877,-227.8062C170.1157,-216.9648 174.2306,-205.6077 178.3355,-194.2781"/>
<ellipse fill="none" stroke="#10270a" cx="164.7911" cy="-231.6607" rx="4" ry="4"/>
<polygon fill="#10270a" stroke="#10270a" points="178.3705,-194.1816 186.0079,-186.3126 180.0737,-189.4806 181.777,-184.7797 181.777,-184.7797 181.777,-184.7797 180.0737,-189.4806 177.5461,-183.2467 178.3705,-194.1816 178.3705,-194.1816"/>
</g>
<!-- ApplicationRecord -->
<g id="node7" class="node">
<title>ApplicationRecord</title>
<ellipse fill="none" stroke="#000000" cx="766.2117" cy="-471.5" rx="77.2916" ry="18"/>
<text text-anchor="middle" x="766.2117" y="-467.3" font-family="Times,serif" font-size="14.00" fill="#000000">ApplicationRecord</text>
</g>
<!-- User -->
<g id="node9" class="node">
<title>User</title>
<path fill="none" stroke="#000000" d="M398.7063,-421.5C398.7063,-421.5 507.717,-421.5 507.717,-421.5 513.717,-421.5 519.717,-427.5 519.717,-433.5 519.717,-433.5 519.717,-509.5 519.717,-509.5 519.717,-515.5 513.717,-521.5 507.717,-521.5 507.717,-521.5 398.7063,-521.5 398.7063,-521.5 392.7063,-521.5 386.7063,-515.5 386.7063,-509.5 386.7063,-509.5 386.7063,-433.5 386.7063,-433.5 386.7063,-427.5 392.7063,-421.5 398.7063,-421.5"/>
<text text-anchor="middle" x="453.2117" y="-506.3" font-family="Times,serif" font-size="14.00" fill="#000000">User</text>
<polyline fill="none" stroke="#000000" points="386.7063,-499.5 519.717,-499.5 "/>
<text text-anchor="start" x="394.7063" y="-484.3" font-family="Times,serif" font-size="14.00" fill="#000000">id :INTEGER</text>
<text text-anchor="start" x="394.7063" y="-470.3" font-family="Times,serif" font-size="14.00" fill="#000000">name :varchar</text>
<text text-anchor="start" x="394.7063" y="-456.3" font-family="Times,serif" font-size="14.00" fill="#000000">created_at :datetime</text>
<text text-anchor="start" x="394.7063" y="-442.3" font-family="Times,serif" font-size="14.00" fill="#000000">updated_at :datetime</text>
<text text-anchor="start" x="394.7063" y="-428.3" font-family="Times,serif" font-size="14.00" fill="#000000">token :varchar</text>
</g>
<!-- User&#45;&gt;HelpRequest -->
<g id="edge4" class="edge">
<title>User&#45;&gt;HelpRequest</title>
<path fill="none" stroke="#2375c7" d="M453.2117,-413.1153C453.2117,-404.9082 453.2117,-396.3257 453.2117,-387.7135"/>
<ellipse fill="none" stroke="#2375c7" cx="453.2117" cy="-417.2881" rx="4" ry="4"/>
<polygon fill="#2375c7" stroke="#2375c7" points="453.2118,-387.6107 457.7117,-377.6107 453.2117,-382.6107 453.2117,-377.6107 453.2117,-377.6107 453.2117,-377.6107 453.2117,-382.6107 448.7117,-377.6108 453.2118,-387.6107 453.2118,-387.6107"/>
</g>
</g>
</svg>
